<?xml version="1.0" encoding="utf-8"?>
<!-- Generator: Adobe Illustrator 16.0.0, SVG Export Plug-In . SVG Version: 6.00 Build 0)  -->
<!DOCTYPE svg PUBLIC "-//W3C//DTD SVG 1.1//EN" "http://www.w3.org/Graphics/SVG/1.1/DTD/svg11.dtd">
<svg version="1.1" id="图层_1" xmlns="http://www.w3.org/2000/svg" xmlns:xlink="http://www.w3.org/1999/xlink" x="0px" y="0px"
	 width="426.947px" height="426.947px" viewBox="0 0 426.947 426.947" enable-background="new 0 0 426.947 426.947"
	 xml:space="preserve">
<path id="Selection" fill="#73C4B2" d="M221.972,18.998l13.598,31.996l37.655,82.989l34.476,67.991l30.566,58.993l23.997,44.994
	l13.688,26.997l-35.996-15.998l-15.997-4c14.508,6.289,35.476,21.388,47.993,31.396c4.359,3.489,15.568,12.048,18.668,15.638
	c3.399,3.93,11.079,19.348,14.188,24.957l22.138,41.995c-6.12-1.79-11.449-5.649-16.999-8.699l-32.995-17.988
	c-21.218-11.479-54.104-26.006-76.99-33.636c-12.068-4.029-27.477-8.979-39.995-10.668l2-21.997v-9.999
	c-0.03-18.397-7.279-43.905-19.298-57.993c-3.37-3.959-8.279-8.799-12.698-11.528c-15.259-9.419-31.396-4.109-42.825,8.528
	c-13.538,14.988-20.927,39.976-21.167,59.993c-0.101,9.019,0.18,14.038,1.479,22.997c0.49,2.399,1.88,7.169,0,9.019
	c-1.38,1.17-14.738,3.899-17.478,4.609l-37.995,12.419c-19.638,7.339-50.704,21.667-68.991,31.806l-23.997,13.139
	c-5.51,3.149-13.188,8.159-18.998,9.999l20.138-37.996l37.545-67.991l60.043-111.986l25.007-48.993l12.248-24.997l13.999,9.658
	c8.599,5.84,30.496,18.628,39.994,21.338l-34.995-29.996c-2.59-2.58-10.688-10.029-11.648-12.999c-1-3.079,1.56-7.269,2.89-9.998
	l9.898-21.997l27.437-65.992L212.973,0L221.972,18.998z"/>
</svg>
