<?xml version="1.0" encoding="utf-8"?>
<!-- Generator: Adobe Illustrator 16.0.0, SVG Export Plug-In . SVG Version: 6.00 Build 0)  -->
<!DOCTYPE svg PUBLIC "-//W3C//DTD SVG 1.1//EN" "http://www.w3.org/Graphics/SVG/1.1/DTD/svg11.dtd">
<svg version="1.1" id="图层_1" xmlns="http://www.w3.org/2000/svg" xmlns:xlink="http://www.w3.org/1999/xlink" x="0px" y="0px"
	 width="33px" height="33px" viewBox="0 0 33 33" enable-background="new 0 0 33 33" xml:space="preserve">
<path fill-rule="evenodd" clip-rule="evenodd" fill="#FFFFFF" d="M16.5,0.228c-8.995,0-16.289,7.294-16.289,16.291
	c0,7.197,4.667,13.302,11.141,15.457c0.814,0.148,1.112-0.354,1.112-0.785c0-0.387-0.014-1.412-0.022-2.771
	c-4.531,0.984-5.487-2.184-5.487-2.184c-0.741-1.881-1.809-2.383-1.809-2.383c-1.479-1.01,0.112-0.99,0.112-0.99
	c1.635,0.115,2.495,1.68,2.495,1.68c1.453,2.488,3.813,1.77,4.741,1.354c0.148-1.053,0.569-1.771,1.034-2.178
	c-3.617-0.412-7.42-1.809-7.42-8.05c0-1.779,0.635-3.232,1.677-4.371c-0.167-0.412-0.727-2.068,0.16-4.311
	c0,0,1.368-0.438,4.479,1.67c1.299-0.361,2.693-0.543,4.078-0.549c1.383,0.006,2.777,0.188,4.079,0.549
	c3.109-2.108,4.475-1.67,4.475-1.67c0.889,2.243,0.33,3.899,0.162,4.311c1.044,1.139,1.674,2.592,1.674,4.371
	c0,6.257-3.809,7.634-7.438,8.037c0.586,0.504,1.106,1.498,1.106,3.018c0,2.178-0.021,3.934-0.021,4.469
	c0,0.436,0.294,0.941,1.121,0.783c6.467-2.158,11.129-8.26,11.129-15.455C32.789,7.521,25.496,0.228,16.5,0.228z"/>
<g>
</g>
<g>
</g>
<g>
</g>
<g>
</g>
<g>
</g>
<g>
</g>
</svg>
